<svg width="100%" height="100%" id="svg" viewBox="0 0 1440 590" xmlns="http://www.w3.org/2000/svg" class="transition duration-300 ease-in-out delay-150"><path d="M 0,600 L 0,150 C 85.01435406698565,166.7081339712919 170.0287081339713,183.41626794258374 261,216 C 351.9712918660287,248.58373205741626 448.8995215311004,297.0430622009569 545,299 C 641.1004784688996,300.9569377990431 736.3732057416267,256.41148325358853 843,267 C 949.6267942583733,277.58851674641147 1067.6076555023924,343.31100478468903 1169,383 C 1270.3923444976076,422.68899521531097 1355.1961722488038,436.3444976076555 1440,450 L 1440,600 L 0,600 Z" stroke="none" stroke-width="0" fill="#d4d6c9" fill-opacity="0.53" class="transition-all duration-300 ease-in-out delay-150 path-0" transform="rotate(-180 720 300)"></path><path d="M 0,600 L 0,350 C 85.92344497607655,303.6459330143541 171.8468899521531,257.29186602870817 278,290 C 384.1531100478469,322.70813397129183 510.53588516746413,434.47846889952154 614,457 C 717.4641148325359,479.52153110047846 798.0095693779906,412.79425837320576 895,428 C 991.9904306220094,443.20574162679424 1105.4258373205741,540.3444976076555 1199,591 C 1292.5741626794259,641.6555023923445 1366.287081339713,645.8277511961722 1440,650 L 1440,600 L 0,600 Z" stroke="none" stroke-width="0" fill="#d4d6c9" fill-opacity="1" class="transition-all duration-300 ease-in-out delay-150 path-1" transform="rotate(-180 720 300)"></path></svg>