<?xml version="1.0"?>
<svg width="16.03661653867476" height="18.20879712698505" xmlns="http://www.w3.org/2000/svg" xmlns:svg="http://www.w3.org/2000/svg" version="1.1">
 <defs>
  <clipPath id="SvgjsClipPath1013">
   <path d="m-65.15,-23.2l11.43,0l0,11.21l-11.43,0l0,-11.21z" id="svg_1"/>
  </clipPath>
  <clipPath id="SvgjsClipPath1000a8eeef70-d426-48d9-8e68-50b9bcf5d963">
   <path d="m-65.15,-23.2l11.43,0l0,11.21l-11.43,0l0,-11.21z" id="svg_2"/>
  </clipPath>
 </defs>
 <g class="layer">
  <title>Layer 1</title>
  <g id="svg_3" transform="matrix(11.6312 0 0 11.0777 10.8852 -36.4931)">
   <g clip-path="url(#SvgjsClipPath1013)" id="svg_8">
    <g clip-path="url(#SvgjsClipPath1000a8eeef70-d426-48d9-8e68-50b9bcf5d963)" id="svg_9">
     <path d="m-58.31,-13.59c0,-0.16 0.01,-0.31 0.04,-0.47c0.04,-0.15 0.09,-0.3 0.15,-0.45c0.13,-0.29 0.3,-0.57 0.5,-0.82c0.41,-0.5 0.91,-0.89 1.36,-1.28c0.45,-0.39 0.87,-0.77 1.14,-1.2c0.28,-0.44 0.43,-0.93 0.35,-1.35c-0.06,-0.41 -0.38,-0.8 -0.79,-0.99c-0.21,-0.1 -0.43,-0.14 -0.65,-0.13c-0.24,0.01 -0.47,0.08 -0.68,0.19c-0.46,0.24 -0.79,0.67 -0.89,1.18c-0.12,0.52 -0.03,1.13 0.29,1.65c-0.49,-0.37 -0.79,-1.02 -0.79,-1.7c0,-0.17 0.02,-0.35 0.06,-0.51c0.04,-0.18 0.1,-0.34 0.19,-0.5c0.17,-0.32 0.41,-0.59 0.7,-0.8c0.15,-0.1 0.31,-0.19 0.48,-0.26c0.17,-0.07 0.35,-0.12 0.54,-0.15c0.19,-0.03 0.38,-0.03 0.57,-0.01c0.19,0.03 0.38,0.07 0.56,0.14c0.35,0.15 0.67,0.37 0.92,0.66c0.26,0.3 0.43,0.66 0.5,1.05c0.07,0.38 0.04,0.76 -0.07,1.13c-0.11,0.34 -0.27,0.66 -0.49,0.95c-0.2,0.27 -0.43,0.52 -0.69,0.73c-0.25,0.2 -0.51,0.39 -0.77,0.56c-0.52,0.34 -1.03,0.63 -1.48,0.99c-0.45,0.37 -0.84,0.81 -1.05,1.39z" fill="#aac527" fill-rule="nonzero" id="svg_10"/>
    </g>
    <g clip-path="url(#SvgjsClipPath1000a8eeef70-d426-48d9-8e68-50b9bcf5d963)" id="svg_11">
     <path d="m-61.57,-17.65c0.49,0.06 0.98,-0.02 1.43,-0.21c0.43,-0.19 0.81,-0.49 1.01,-0.88c0.22,-0.37 0.3,-0.82 0.25,-1.25c-0.05,-0.42 -0.21,-0.82 -0.47,-1.16c-0.25,-0.34 -0.58,-0.6 -0.97,-0.78c-0.18,-0.08 -0.37,-0.13 -0.57,-0.16c-0.2,-0.03 -0.4,-0.03 -0.6,0c-0.81,0.11 -1.59,0.64 -2.02,1.34c-0.44,0.7 -0.58,1.62 -0.46,2.5c0.12,0.88 0.52,1.73 1.07,2.5c0.56,0.76 1.27,1.43 2.05,2.03c0.78,0.61 1.63,1.15 2.46,1.73c-0.95,-0.35 -1.88,-0.75 -2.78,-1.25c-0.88,-0.51 -1.74,-1.13 -2.44,-1.94c-0.36,-0.4 -0.67,-0.85 -0.92,-1.33c-0.25,-0.49 -0.43,-1.02 -0.53,-1.56c-0.1,-0.56 -0.11,-1.13 -0.03,-1.68c0.09,-0.58 0.29,-1.13 0.59,-1.62c0.63,-1 1.69,-1.7 2.89,-1.82c0.6,-0.06 1.21,0.06 1.75,0.34c0.52,0.27 0.96,0.68 1.27,1.18c0.31,0.49 0.49,1.08 0.47,1.65c-0.01,0.58 -0.18,1.15 -0.53,1.61c-0.36,0.43 -0.84,0.73 -1.39,0.86c-0.52,0.12 -1.06,0.08 -1.53,-0.1z" fill="#343432" fill-rule="nonzero" id="svg_12"/>
    </g>
    <g clip-path="url(#SvgjsClipPath1000a8eeef70-d426-48d9-8e68-50b9bcf5d963)" id="svg_13">
     <path d="m-61.64,-19.02c0.18,0.06 0.33,0.1 0.47,0.13c0.12,0.02 0.25,0.04 0.38,0.06c0.13,0.01 0.26,0.02 0.38,0.01c0.14,0 0.29,-0.01 0.49,-0.02c-0.05,0.19 -0.19,0.34 -0.35,0.44c-0.36,0.2 -0.8,0.15 -1.11,-0.11c-0.15,-0.13 -0.26,-0.31 -0.26,-0.51z" fill="#343432" fill-rule="nonzero" id="svg_14"/>
    </g>
    <g clip-path="url(#SvgjsClipPath1000a8eeef70-d426-48d9-8e68-50b9bcf5d963)" id="svg_15">
     <path d="m-57.39,-18c0.12,0.02 0.21,0.04 0.29,0.06c0.08,0.02 0.16,0.03 0.23,0.05c0.08,0.02 0.15,0.04 0.23,0.06c0.08,0.03 0.17,0.05 0.28,0.09c-0.06,0.1 -0.16,0.17 -0.27,0.2c-0.22,0.07 -0.46,0.01 -0.62,-0.16c-0.08,-0.08 -0.13,-0.19 -0.14,-0.3z" fill="#aac527" fill-rule="nonzero" id="svg_16"/>
    </g>
    <g clip-path="url(#SvgjsClipPath1000a8eeef70-d426-48d9-8e68-50b9bcf5d963)" id="svg_17">
     <path d="m-60.15,-21.4c-0.45,-0.05 -0.9,0.01 -1.32,0.15c-0.81,0.27 -1.43,0.92 -1.66,1.74c-0.12,0.43 -0.15,0.88 -0.09,1.33c-0.28,-0.39 -0.39,-0.91 -0.33,-1.41c0.11,-1.06 0.92,-1.92 1.97,-2.08c0.5,-0.07 1.02,0 1.43,0.27z" fill="#343432" fill-rule="nonzero" id="svg_18"/>
    </g>
    <g clip-path="url(#SvgjsClipPath1000a8eeef70-d426-48d9-8e68-50b9bcf5d963)" id="svg_19">
     <path d="m-55.49,-14.67c-0.49,0 -1,0.18 -1.43,0.51c-0.45,0.33 -0.78,0.8 -0.95,1.34c0.05,-0.58 0.3,-1.15 0.69,-1.61c0.42,-0.48 0.98,-0.82 1.6,-0.97l0.01,0c0.2,-0.05 0.4,0.08 0.44,0.28c0.05,0.2 -0.08,0.4 -0.28,0.44c-0.02,0.01 -0.05,0.01 -0.08,0.01z" fill="#aac527" fill-rule="nonzero" id="svg_20"/>
    </g>
   </g>
  </g>
 </g>
</svg>